<?xml version="1.0" encoding="UTF-8"?>
<svg width="52px" height="19px" viewBox="0 0 52 19" version="1.1" xmlns="http://www.w3.org/2000/svg" xmlns:xlink="http://www.w3.org/1999/xlink">
    <title>Logo/dark</title>
    <g id="Logo/dark" stroke="none" stroke-width="1" fill="none" fill-rule="evenodd">
        <path d="M3.968,15 L3.968,10.808 L5.328,9.416 L8.544,15 L11.2,15 L6.992,7.864 L10.784,3.576 L8.176,3.576 L3.968,8.152 L3.968,3.576 L1.568,3.576 L1.568,15 L3.968,15 Z M14.48,5.592 L14.48,3.576 L12.176,3.576 L12.176,5.592 L14.48,5.592 Z M14.448,15 L14.448,6.648 L12.208,6.648 L12.208,15 L14.448,15 Z M18.688,15 L18.688,9.976 C18.688,9.73066667 18.7386667,9.504 18.84,9.296 C18.9413333,9.088 19.0666667,8.90933333 19.216,8.76 C19.3973333,8.6 19.592,8.47733333 19.8,8.392 C20.008,8.30666667 20.256,8.264 20.544,8.264 C20.9173333,8.264 21.216,8.37066667 21.44,8.584 C21.664,8.79733333 21.776,9.19733333 21.776,9.784 L21.776,9.784 L21.776,15 L24.016,15 L24.016,9.48 C24.016,8.41333333 23.7866667,7.632 23.328,7.136 C22.8693333,6.64 22.1653333,6.392 21.216,6.392 C20.7253333,6.392 20.2533333,6.504 19.8,6.728 C19.3466667,6.952 18.9546667,7.30933333 18.624,7.8 L18.624,7.8 L18.624,6.648 L16.448,6.648 L16.448,15 L18.688,15 Z M29.312,15.256 C30.56,15.256 31.4826667,15.0186667 32.08,14.544 C32.6773333,14.0693333 32.976,13.4373333 32.976,12.648 C32.976,12.2533333 32.9306667,11.9066667 32.84,11.608 C32.7493333,11.3093333 32.5893333,11.0506667 32.36,10.832 C32.1306667,10.6133333 31.824,10.4293333 31.44,10.28 C31.056,10.1306667 30.5706667,10.008 29.984,9.912 L29.984,9.912 L28.928,9.736 C28.448,9.65066667 28.1253333,9.54666667 27.96,9.424 C27.7946667,9.30133333 27.712,9.10666667 27.712,8.84 C27.712,8.75466667 27.736,8.664 27.784,8.568 C27.832,8.472 27.912,8.38666667 28.024,8.312 C28.136,8.23733333 28.2906667,8.176 28.488,8.128 C28.6853333,8.08 28.9333333,8.056 29.232,8.056 C29.7653333,8.056 30.152,8.14666667 30.392,8.328 C30.632,8.50933333 30.8,8.792 30.896,9.176 L30.896,9.176 L32.896,8.92 C32.832,8.568 32.728,8.23733333 32.584,7.928 C32.44,7.61866667 32.2266667,7.352 31.944,7.128 C31.6613333,6.904 31.296,6.72533333 30.848,6.592 C30.4,6.45866667 29.8453333,6.392 29.184,6.392 C28.6506667,6.392 28.1626667,6.45333333 27.72,6.576 C27.2773333,6.69866667 26.896,6.872 26.576,7.096 C26.256,7.32 26.008,7.592 25.832,7.912 C25.656,8.232 25.568,8.59466667 25.568,9 C25.568,9.78933333 25.816,10.3786667 26.312,10.768 C26.808,11.1573333 27.5626667,11.432 28.576,11.592 L28.576,11.592 L29.728,11.784 C30.1333333,11.848 30.408,11.96 30.552,12.12 C30.696,12.28 30.768,12.4666667 30.768,12.68 C30.768,12.9786667 30.6533333,13.1946667 30.424,13.328 C30.1946667,13.4613333 29.8133333,13.528 29.28,13.528 C28.832,13.528 28.448,13.4533333 28.128,13.304 C27.808,13.1546667 27.6106667,12.8346667 27.536,12.344 L27.536,12.344 L25.392,12.344 C25.424,12.9093333 25.5546667,13.3786667 25.784,13.752 C26.0133333,14.1253333 26.3066667,14.424 26.664,14.648 C27.0213333,14.872 27.4266667,15.0293333 27.88,15.12 C28.3333333,15.2106667 28.8106667,15.256 29.312,15.256 Z M38.4,15.256 C39.552,15.256 40.4293333,15.0133333 41.032,14.528 C41.6346667,14.0426667 42.0106667,13.3306667 42.16,12.392 L42.16,12.392 L39.984,12.392 C39.824,13.1386667 39.3013333,13.512 38.416,13.512 C37.776,13.512 37.296,13.3226667 36.976,12.944 C36.656,12.5653333 36.4853333,12.04 36.464,11.368 L36.464,11.368 L42.256,11.368 L42.256,10.472 C42.256,9.224 41.9333333,8.232 41.288,7.496 C40.6426667,6.76 39.68,6.392 38.4,6.392 C37.7813333,6.392 37.216,6.49066667 36.704,6.688 C36.192,6.88533333 35.752,7.176 35.384,7.56 C35.016,7.944 34.7306667,8.41066667 34.528,8.96 C34.3253333,9.50933333 34.224,10.136 34.224,10.84 C34.224,12.248 34.5733333,13.336 35.272,14.104 C35.9706667,14.872 37.0133333,15.256 38.4,15.256 Z M40.096,9.896 L36.496,9.896 C36.5066667,9.64 36.5546667,9.40266667 36.64,9.184 C36.7253333,8.96533333 36.8453333,8.77333333 37,8.608 C37.1546667,8.44266667 37.344,8.312 37.568,8.216 C37.792,8.12 38.0533333,8.072 38.352,8.072 C38.9493333,8.072 39.3893333,8.232 39.672,8.552 C39.9546667,8.872 40.096,9.32 40.096,9.896 L40.096,9.896 Z M45.056,18.104 C45.504,18.104 45.88,18.0453333 46.184,17.928 C46.488,17.8106667 46.7493333,17.632 46.968,17.392 C47.1866667,17.152 47.3813333,16.8533333 47.552,16.496 C47.7226667,16.1386667 47.904,15.72 48.096,15.24 L48.096,15.24 L51.472,6.648 L49.024,6.648 L47.2,12.136 L45.248,6.648 L42.656,6.648 L46.128,14.632 L45.872,15.336 C45.744,15.6986667 45.5893333,15.952 45.408,16.096 C45.2266667,16.24 44.9866667,16.312 44.688,16.312 C44.368,16.312 44.0533333,16.2693333 43.744,16.184 L43.744,16.184 L43.376,17.848 C43.6746667,17.944 43.96,18.0106667 44.232,18.048 C44.504,18.0853333 44.7786667,18.104 45.056,18.104 Z" id="Kinsey" fill="#333333" fill-rule="nonzero"></path>
    </g>
</svg>